<?xml version="1.0" encoding="UTF-8"?>
<svg version="1.1" xmlns="http://www.w3.org/2000/svg" width="468" height="136">
<path d="M0 0 C0.01458252 1.13542236 0.02916504 2.27084473 0.04418945 3.44067383 C0.10213676 7.65095609 0.17936941 11.8607015 0.26245117 16.07055664 C0.2957174 17.89305919 0.32374406 19.71566519 0.34643555 21.53833008 C0.37995081 24.1575125 0.43226352 26.77574548 0.48828125 29.39453125 C0.49467117 30.21025101 0.5010611 31.02597076 0.50764465 31.8664093 C0.48789244 36.15372368 0.48789244 36.15372368 2.52702332 39.73930359 C3.01310562 40.1553334 3.49918793 40.57136322 4 41 C9.90636654 36.36695404 15.95892401 31.00573803 19 24 C17.99745918 19.38525103 14.79527499 15.58633212 12.0625 11.8125 C11.61970703 11.18408203 11.17691406 10.55566406 10.72070312 9.90820312 C8.64310421 7.01318824 6.99276576 4.99517718 4 3 C4 2.01 4 1.02 4 0 C8.95 0 13.9 0 19 0 C19 0.99 19 1.98 19 3 C21.21869977 7.93751629 23.84366953 12.45942219 28 16 C28.2475 15.319375 28.495 14.63875 28.75 13.9375 C30.24197908 10.43134917 32.06835511 7.28379632 34 4 C33.01 3.67 32.02 3.34 31 3 C31 2.01 31 1.02 31 0 C39.91 0 48.82 0 58 0 C58.495 2.97 58.495 2.97 59 6 C60.35747167 8.57416862 60.35747167 8.57416862 62.0625 10.875 C62.61035156 11.65617187 63.15820312 12.43734375 63.72265625 13.2421875 C64.35494141 14.11230469 64.35494141 14.11230469 65 15 C68.68006822 11.61831569 70.9785845 8.57478244 73 4 C72.01 3.67 71.02 3.34 70 3 C70 2.01 70 1.02 70 0 C73.63 0 77.26 0 81 0 C81.495 1.485 81.495 1.485 82 3 C80.7625 3.6496875 80.7625 3.6496875 79.5 4.3125 C74.57940267 7.60078379 70.57574796 12.72121421 68 18 C68.90694355 22.54209129 72.13801366 26.34815447 74.8125 30.0625 C75.23853516 30.67416016 75.66457031 31.28582031 76.10351562 31.91601562 C78.7018871 35.5521633 81.25784435 38.45228453 85 41 C85.66 41 86.32 41 87 41 C87 30.11 87 19.22 87 8 C86.01 7.505 86.01 7.505 85 7 C86 4 86 4 87.70703125 2.83203125 C88.40183594 2.49558594 89.09664063 2.15914062 89.8125 1.8125 C90.49957031 1.46832031 91.18664062 1.12414063 91.89453125 0.76953125 C94 0 94 0 98 0 C98.029729 1.6874231 98.029729 1.6874231 98.06005859 3.40893555 C98.13628155 7.59307781 98.22497306 11.77687987 98.31738281 15.96069336 C98.35560367 17.76954418 98.3904685 19.57846921 98.421875 21.38745117 C98.46767557 23.99164302 98.52564474 26.595327 98.5859375 29.19921875 C98.59748871 30.00461594 98.60903992 30.81001312 98.62094116 31.63981628 C98.64081085 32.4002272 98.66068054 33.16063812 98.68115234 33.9440918 C98.69447601 34.60805466 98.70779968 35.27201752 98.7215271 35.95610046 C98.99348196 38.5701037 98.99348196 38.5701037 101 43 C90.44 43 79.88 43 69 43 C68.67 41.35 68.34 39.7 68 38 C66.39075012 35.05848342 66.39075012 35.05848342 64.4375 32.1875 C63.79683594 31.21167969 63.15617187 30.23585938 62.49609375 29.23046875 C62.00238281 28.49441406 61.50867188 27.75835937 61 27 C56.75595588 30.88026891 53.89082453 35.04254346 51 40 C52.485 40.495 52.485 40.495 54 41 C54 41.66 54 42.32 54 43 C46.08 43 38.16 43 30 43 C29.505 40.03 29.505 40.03 29 37 C27.41727435 34.19097218 27.41727435 34.19097218 25.4375 31.625 C24.79683594 30.75101563 24.15617187 29.87703125 23.49609375 28.9765625 C23.00238281 28.32429688 22.50867188 27.67203125 22 27 C17.40783094 31.06734974 14.7832093 35.56385928 12 41 C13.32 41.33 14.64 41.66 16 42 C16 42.33 16 42.66 16 43 C6.43 43 -3.14 43 -13 43 C-13 42.34 -13 41.68 -13 41 C-12.34 41 -11.68 41 -11 41 C-11 30.11 -11 19.22 -11 8 C-11.66 7.67 -12.32 7.34 -13 7 C-12 4 -12 4 -10.29296875 2.83203125 C-9.25076172 2.32736328 -9.25076172 2.32736328 -8.1875 1.8125 C-7.50042969 1.46832031 -6.81335938 1.12414063 -6.10546875 0.76953125 C-4 0 -4 0 0 0 Z M36 7 C31.00143429 12.52869574 31.00143429 12.52869574 29 19.33984375 C30.43084211 23.14610733 32.57500797 26.28903422 34.875 29.625 C35.32230469 30.29273437 35.76960938 30.96046875 36.23046875 31.6484375 C39.25133188 36.13047224 39.25133188 36.13047224 43 40 C45.46673682 39.84642884 46.6397168 39.31689831 48.4921875 37.6875 C52.33255112 33.00095456 55.73612873 28.10413911 59 23 C57.58684299 20.76854054 56.16962358 18.53984045 54.75 16.3125 C54.35425781 15.68666016 53.95851563 15.06082031 53.55078125 14.41601562 C49.57826322 7.58224125 49.57826322 7.58224125 43.5625 2.9375 C39.72725647 3.03104253 38.69269088 4.24319743 36 7 Z " fill="#675BF2" transform="translate(199,44)"/>
<path d="M0 0 C1.58941406 0.20882812 1.58941406 0.20882812 3.2109375 0.421875 C3.49066406 1.0509375 3.77039063 1.68 4.05859375 2.328125 C6.68936896 7.94495696 9.55393425 12.35232791 13.85546875 16.828125 C15.2109375 18.421875 15.2109375 18.421875 15.2109375 20.421875 C15.7678125 20.69 16.3246875 20.958125 16.8984375 21.234375 C19.42319084 22.53086996 21.84808234 23.84663823 24.2109375 25.421875 C24.2109375 26.081875 24.2109375 26.741875 24.2109375 27.421875 C25.1803125 27.56625 26.1496875 27.710625 27.1484375 27.859375 C30.2109375 28.421875 30.2109375 28.421875 31.2109375 29.421875 C31.25186687 31.75484933 31.25335473 34.08892725 31.2109375 36.421875 C29.2309375 36.916875 29.2309375 36.916875 27.2109375 37.421875 C27.2109375 38.081875 27.2109375 38.741875 27.2109375 39.421875 C24.2409375 39.916875 24.2409375 39.916875 21.2109375 40.421875 C20.8809375 41.411875 20.5509375 42.401875 20.2109375 43.421875 C18.56090922 44.77574436 16.8934988 46.10865642 15.2109375 47.421875 C14.5509375 48.411875 13.8909375 49.401875 13.2109375 50.421875 C12.5509375 50.421875 11.8909375 50.421875 11.2109375 50.421875 C10.93765625 50.97488281 10.664375 51.52789062 10.3828125 52.09765625 C4.38526397 63.99279418 4.38526397 63.99279418 -0.0390625 65.609375 C-2.7890625 65.421875 -2.7890625 65.421875 -4.7890625 64.421875 C-5.1190625 63.431875 -5.4490625 62.441875 -5.7890625 61.421875 C-6.7790625 60.761875 -7.7690625 60.101875 -8.7890625 59.421875 C-8.9765625 56.796875 -8.9765625 56.796875 -8.7890625 54.421875 C-10.2740625 53.926875 -10.2740625 53.926875 -11.7890625 53.421875 C-11.7890625 52.431875 -11.7890625 51.441875 -11.7890625 50.421875 C-13.2740625 49.926875 -13.2740625 49.926875 -14.7890625 49.421875 C-14.7890625 48.761875 -14.7890625 48.101875 -14.7890625 47.421875 C-16.1090625 46.761875 -17.4290625 46.101875 -18.7890625 45.421875 C-18.7890625 44.761875 -18.7890625 44.101875 -18.7890625 43.421875 C-19.7790625 43.421875 -20.7690625 43.421875 -21.7890625 43.421875 C-22.1190625 42.761875 -22.4490625 42.101875 -22.7890625 41.421875 C-24.43269384 40.70028076 -26.09956636 40.02836079 -27.7890625 39.421875 C-27.7890625 38.761875 -27.7890625 38.101875 -27.7890625 37.421875 C-28.7790625 37.421875 -29.7690625 37.421875 -30.7890625 37.421875 C-30.7890625 34.121875 -30.7890625 30.821875 -30.7890625 27.421875 C-30.0878125 27.195 -29.3865625 26.968125 -28.6640625 26.734375 C-26.13463008 25.57963411 -24.65838209 24.58079961 -22.6015625 22.796875 C-19.7890625 20.421875 -19.7890625 20.421875 -17.7890625 20.421875 C-17.7890625 19.761875 -17.7890625 19.101875 -17.7890625 18.421875 C-16.68691406 17.59429687 -16.68691406 17.59429687 -15.5625 16.75 C-11.71318171 13.51874127 -9.71122354 9.59324228 -7.359375 5.203125 C-5.16002023 1.46422189 -4.42347512 0.49251063 0 0 Z " fill="#685AFC" transform="translate(65.7890625,37.578125)"/>
<path d="M0 0 C0.33 1.32 0.66 2.64 1 4 C1.80050781 3.566875 1.80050781 3.566875 2.6171875 3.125 C8.47098997 0.20822645 13.47184503 -1.05920395 20 0 C25.33851826 1.81346613 28.30069344 5.12048429 31 10 C33.18415515 16.55246546 33.3455619 26.17470591 30.4375 32.5625 C27.04773912 38.07987675 22.15811826 42.03772149 16 44 C12.9921875 44.23046875 12.9921875 44.23046875 9.875 44.1875 C8.32425781 44.17783203 8.32425781 44.17783203 6.7421875 44.16796875 C4 44 4 44 1 43 C0.9417747 46.08325358 0.90632866 49.16636505 0.875 52.25 C0.85824219 53.12269531 0.84148437 53.99539062 0.82421875 54.89453125 C0.81455078 56.16103516 0.81455078 56.16103516 0.8046875 57.453125 C0.78897705 58.61569824 0.78897705 58.61569824 0.77294922 59.80175781 C0.91185954 62.41197375 0.91185954 62.41197375 3 66 C-2.28 66 -7.56 66 -13 66 C-12.34 64.35 -11.68 62.7 -11 61 C-10.70161516 58.41148029 -10.70161516 58.41148029 -10.74121094 55.69067383 C-10.73490662 54.65642776 -10.72860229 53.6221817 -10.72210693 52.55659485 C-10.7261554 51.45123886 -10.73020386 50.34588287 -10.734375 49.20703125 C-10.73246155 48.064655 -10.7305481 46.92227875 -10.72857666 45.74528503 C-10.72721762 43.33547749 -10.73089438 40.92566256 -10.73925781 38.51586914 C-10.74999057 34.81575227 -10.73933757 31.1161177 -10.7265625 27.41601562 C-10.72788356 25.07551976 -10.73044486 22.73502419 -10.734375 20.39453125 C-10.73032654 19.28310257 -10.72627808 18.17167389 -10.72210693 17.02656555 C-10.72841125 16.00177597 -10.73471558 14.97698639 -10.74121094 13.92114258 C-10.74280212 13.01689041 -10.74439331 12.11263824 -10.74603271 11.1809845 C-10.79575657 8.79052765 -10.79575657 8.79052765 -13 7 C-13 6.01 -13 5.02 -13 4 C-11.58774074 3.32404685 -10.16997095 2.65959941 -8.75 2 C-7.56664062 1.443125 -7.56664062 1.443125 -6.359375 0.875 C-4 0 -4 0 0 0 Z M1 7 C-1.52767366 9.52767366 -0.28293422 16.29532003 -0.3125 19.6875 C-0.34150391 20.77740234 -0.37050781 21.86730469 -0.40039062 22.99023438 C-0.45030373 29.29848346 -0.37960891 33.28883619 4 38 C6.4652102 39.99249979 8.94050643 41.17079146 12 42 C16.16713358 41.51383442 18.21916521 40.67809337 21.375 37.9375 C24.9479463 31.47871245 24.27170258 24.69982625 22.7890625 17.65234375 C21.13556283 12.09429286 18.81653051 8.18630564 13.9375 5 C8.61674351 3.18867864 5.71939868 4.37811184 1 7 Z " fill="#675AF5" transform="translate(149,44)"/>
<path d="M0 0 C6.00509774 5.69714401 6.47740899 11.60701658 6.75390625 19.5859375 C6.79580078 20.73964844 6.83769531 21.89335938 6.88085938 23.08203125 C6.92017578 24.27183594 6.95949219 25.46164063 7 26.6875 C7.04318359 27.90050781 7.08636719 29.11351563 7.13085938 30.36328125 C7.23655513 33.34625032 7.33865321 36.32929742 7.4375 39.3125 C8.0975 39.3125 8.7575 39.3125 9.4375 39.3125 C9.4375 39.9725 9.4375 40.6325 9.4375 41.3125 C7.45840602 41.33936553 5.47921029 41.35883375 3.5 41.375 C2.39785156 41.38660156 1.29570312 41.39820313 0.16015625 41.41015625 C-2.5625 41.3125 -2.5625 41.3125 -3.5625 40.3125 C-3.79442865 38.79780552 -3.97465238 37.27495438 -4.125 35.75 C-4.20878906 34.92371094 -4.29257812 34.09742188 -4.37890625 33.24609375 C-4.43949219 32.60800781 -4.50007813 31.96992187 -4.5625 31.3125 C-5.42875 32.67375 -5.42875 32.67375 -6.3125 34.0625 C-9.03415881 37.99378494 -10.97097148 40.78199049 -15.5625 42.3125 C-20.49578449 42.82255145 -24.320688 43.07279306 -28.625 40.4375 C-32.03752858 36.69472671 -31.90977574 33.69719473 -31.83203125 28.78515625 C-31.43434813 25.13684585 -30.34581315 23.67831618 -27.5625 21.3125 C-20.9305504 16.9618107 -11.47870805 13.3125 -3.5625 13.3125 C-3.9607875 12.01504828 -4.38193922 10.7246019 -4.8125 9.4375 C-5.04453125 8.71820313 -5.2765625 7.99890625 -5.515625 7.2578125 C-6.85649087 4.76620353 -7.90449823 4.21449338 -10.5625 3.3125 C-16.6241616 2.98186391 -20.74245274 4.64008304 -25.5625 8.3125 C-26.5525 8.6425 -27.5425 8.9725 -28.5625 9.3125 C-27.15377675 5.94762219 -25.56594528 4.25540543 -22.625 2.125 C-21.59052734 1.36123047 -21.59052734 1.36123047 -20.53515625 0.58203125 C-14.62594723 -3.22092505 -6.15771473 -2.91681224 0 0 Z M-20.25 21.75 C-22.71160148 24.47772056 -23.65407808 25.64937663 -23.5625 29.3125 C-21.81136475 33.02511227 -21.81136475 33.02511227 -18.5625 35.3125 C-15.68943772 35.81345023 -15.68943772 35.81345023 -12.5625 35.3125 C-7.1903759 30.93984085 -4.57813353 26.83869594 -3.875 20 C-3.75873146 18.43835389 -3.65054127 16.8759915 -3.5625 15.3125 C-8.92508907 15.3125 -16.05981807 18.50466302 -20.25 21.75 Z " fill="#675AF3" transform="translate(400.5625,45.6875)"/>
<path d="M0 0 C3.76268466 2.21334392 5.79768919 4.21999524 8.1875 7.875 C8.6825 11.34 8.6825 11.34 9.1875 14.875 C-1.3725 14.875 -11.9325 14.875 -22.8125 14.875 C-21.1495398 25.08566336 -21.1495398 25.08566336 -15.3125 32.1875 C-10.41962795 34.54656331 -6.15553835 34.55183794 -0.8125 33.875 C2.5734434 32.64263727 2.5734434 32.64263727 5.1875 30.875 C6.52083333 30.20833333 7.85416667 29.54166667 9.1875 28.875 C9.1875 32.48626624 8.00916856 33.73136147 5.6875 36.3828125 C0.84938275 41.19573122 -3.81873484 43.02495962 -10.5 43.1875 C-16.15087929 43.13283611 -20.25435488 42.27709382 -24.8125 38.875 C-29.96015783 33.45641281 -31.70631739 28.23699424 -31.8125 20.875 C-31.07901641 13.79630124 -28.740512 8.64474108 -23.5 3.6875 C-15.8283665 -1.48639236 -8.93056116 -2.63524756 0 0 Z M-18.8125 3.875 C-21.41941129 7.26398468 -21.8125 8.50234613 -21.8125 12.875 C-14.74641809 13.01294954 -7.83889415 12.62305717 -0.8125 11.875 C-2.04779937 6.93380254 -3.47438566 4.59893226 -7.8125 1.875 C-12.31734305 0.14236806 -14.85455396 1.29373085 -18.8125 3.875 Z " fill="#665CF0" transform="translate(335.8125,45.125)"/>
<path d="M0 0 C4.44837341 -0.36067893 4.44837341 -0.36067893 6.625 1.0625 C8 3 8 3 9.4375 6.5625 C10.6545943 10.05154326 10.6545943 10.05154326 13.1875 11.4375 C13.785625 11.623125 14.38375 11.80875 15 12 C15 12.66 15 13.32 15 14 C15.66 14 16.32 14 17 14 C17 17.3 17 20.6 17 24 C15.35 24 13.7 24 12 24 C11.67 24.99 11.34 25.98 11 27 C10.34 27.33 9.68 27.66 9 28 C8.401875 29.155 7.80375 30.31 7.1875 31.5 C5.72935994 34.12898859 5.30099255 34.85702854 2.5 36.1875 C0 36 0 36 -2.25 34.375 C-4.12620033 31.82872813 -4.654156 30.11259604 -5 27 C-5.99 26.67 -6.98 26.34 -8 26 C-8 25.34 -8 24.68 -8 24 C-8.969375 23.87625 -9.93875 23.7525 -10.9375 23.625 C-12.4534375 23.315625 -12.4534375 23.315625 -14 23 C-15.4783226 20.04335481 -15.06032783 17.25770263 -15 14 C-14.278125 13.7525 -13.55625 13.505 -12.8125 13.25 C-8.20614205 11.2027298 -4.87540252 8.77375186 -3 4 C-2.34 4 -1.68 4 -1 4 C-0.67 2.68 -0.34 1.36 0 0 Z " fill="#6852F9" transform="translate(99,78)"/>
<path d="M0 0 C3.39809869 1.69904935 4.4580995 4.03516548 6.19140625 7.33984375 C7.71259163 9.56032032 9.03461795 10.25446517 11.5 11.25 C11.5 11.91 11.5 12.57 11.5 13.25 C12.16 13.25 12.82 13.25 13.5 13.25 C13.5 16.55 13.5 19.85 13.5 23.25 C11.85 23.25 10.2 23.25 8.5 23.25 C8.17 24.24 7.84 25.23 7.5 26.25 C6.51 26.25 5.52 26.25 4.5 26.25 C4.4175 26.806875 4.335 27.36375 4.25 27.9375 C3.27389987 30.94714206 1.54811186 32.87154752 -0.5 35.25 C-3.37793751 33.95989008 -5.46183917 32.67638194 -7.5 30.25 C-7.83 29.26 -8.16 28.27 -8.5 27.25 C-10.38901665 24.8638737 -11.73391288 24.15643485 -14.625 23 C-16.048125 22.13375 -16.048125 22.13375 -17.5 21.25 C-18.375 17.5625 -18.375 17.5625 -18.5 14.25 C-17.87351562 13.86328125 -17.24703125 13.4765625 -16.6015625 13.078125 C-15.78429687 12.55734375 -14.96703125 12.0365625 -14.125 11.5 C-13.31289062 10.98953125 -12.50078125 10.4790625 -11.6640625 9.953125 C-9.37245024 8.14961788 -8.65514913 6.87150282 -7.5 4.25 C-5.01302193 1.76302193 -3.54178635 0.35417864 0 0 Z " fill="#6755FB" transform="translate(102.5,27.75)"/>
<path d="M0 0 C0.01981934 1.16047852 0.03963867 2.32095703 0.06005859 3.51660156 C0.13617912 7.82557734 0.22488666 12.13421828 0.31738281 16.44287109 C0.3556459 18.30706162 0.39050346 20.1713253 0.421875 22.03564453 C0.46758356 24.71673716 0.52556822 27.39732733 0.5859375 30.078125 C0.59748871 30.91055725 0.60903992 31.7429895 0.62094116 32.60064697 C0.64081085 33.38115417 0.66068054 34.16166138 0.68115234 34.96582031 C0.69447601 35.64976868 0.70779968 36.33371704 0.7215271 37.03839111 C0.95708584 39.44260577 0.95708584 39.44260577 3 43 C-2.28 43 -7.56 43 -13 43 C-12.34 41.68 -11.68 40.36 -11 39 C-10.69202439 35.73914407 -10.69202439 35.73914407 -10.734375 32.1171875 C-10.73246155 31.46170929 -10.7305481 30.80623108 -10.72857666 30.13088989 C-10.72721997 28.75083022 -10.73088029 27.37075757 -10.73925781 25.99072266 C-10.74999982 23.87503616 -10.73932815 21.76019207 -10.7265625 19.64453125 C-10.72788351 18.30208146 -10.7304447 16.95963219 -10.734375 15.6171875 C-10.73775879 13.78583252 -10.73775879 13.78583252 -10.74121094 11.91748047 C-10.69647304 8.87561754 -10.69647304 8.87561754 -13 7 C-13 6.01 -13 5.02 -13 4 C-11.58774074 3.32404685 -10.16997095 2.65959941 -8.75 2 C-7.56664062 1.443125 -7.56664062 1.443125 -6.359375 0.875 C-4 0 -4 0 0 0 Z " fill="#6459F1" transform="translate(426,44)"/>
<path d="M0 0 C1.58941406 0.20882812 1.58941406 0.20882812 3.2109375 0.421875 C3.2109375 0.751875 3.2109375 1.081875 3.2109375 1.421875 C0.9009375 1.751875 -1.4090625 2.081875 -3.7890625 2.421875 C-3.7890625 4.071875 -3.7890625 5.721875 -3.7890625 7.421875 C-4.4078125 7.669375 -5.0265625 7.916875 -5.6640625 8.171875 C-8.26895322 9.70416366 -8.66234922 10.6426489 -9.7890625 13.421875 C-13.33451705 21.90013587 -13.33451705 21.90013587 -15.7890625 25.421875 C-16.4490625 25.421875 -17.1090625 25.421875 -17.7890625 25.421875 C-18.0571875 26.040625 -18.3253125 26.659375 -18.6015625 27.296875 C-19.7890625 29.421875 -19.7890625 29.421875 -22.7890625 31.421875 C-22.28727259 35.7707209 -19.69208712 38.31631378 -16.7890625 41.421875 C-15.46385747 42.10455638 -14.13094068 42.7725791 -12.7890625 43.421875 C-8.7890625 47.86631944 -8.7890625 47.86631944 -8.7890625 50.421875 C-7.7990625 50.421875 -6.8090625 50.421875 -5.7890625 50.421875 C-5.5415625 51.494375 -5.2940625 52.566875 -5.0390625 53.671875 C-3.79023104 57.41836937 -2.76417592 58.94261382 0.2109375 61.421875 C-1.2740625 61.916875 -1.2740625 61.916875 -2.7890625 62.421875 C-1.4690625 62.421875 -0.1490625 62.421875 1.2109375 62.421875 C2.2009375 59.781875 3.1909375 57.141875 4.2109375 54.421875 C4.8709375 54.421875 5.5309375 54.421875 6.2109375 54.421875 C6.2109375 53.431875 6.2109375 52.441875 6.2109375 51.421875 C7.2009375 51.421875 8.1909375 51.421875 9.2109375 51.421875 C9.4996875 50.844375 9.7884375 50.266875 10.0859375 49.671875 C10.4571875 48.929375 10.8284375 48.186875 11.2109375 47.421875 C11.4996875 46.7 11.7884375 45.978125 12.0859375 45.234375 C13.2109375 43.421875 13.2109375 43.421875 15.3359375 42.671875 C15.9546875 42.589375 16.5734375 42.506875 17.2109375 42.421875 C17.5409375 43.081875 17.8709375 43.741875 18.2109375 44.421875 C16.59498918 46.46307288 14.9252993 48.46260437 13.2109375 50.421875 C12.5509375 50.421875 11.8909375 50.421875 11.2109375 50.421875 C10.93765625 50.97488281 10.664375 51.52789062 10.3828125 52.09765625 C4.38526397 63.99279418 4.38526397 63.99279418 -0.0390625 65.609375 C-2.7890625 65.421875 -2.7890625 65.421875 -4.7890625 64.421875 C-5.1190625 63.431875 -5.4490625 62.441875 -5.7890625 61.421875 C-6.7790625 60.761875 -7.7690625 60.101875 -8.7890625 59.421875 C-8.9765625 56.796875 -8.9765625 56.796875 -8.7890625 54.421875 C-10.2740625 53.926875 -10.2740625 53.926875 -11.7890625 53.421875 C-11.7890625 52.431875 -11.7890625 51.441875 -11.7890625 50.421875 C-13.2740625 49.926875 -13.2740625 49.926875 -14.7890625 49.421875 C-14.7890625 48.761875 -14.7890625 48.101875 -14.7890625 47.421875 C-16.1090625 46.761875 -17.4290625 46.101875 -18.7890625 45.421875 C-18.7890625 44.761875 -18.7890625 44.101875 -18.7890625 43.421875 C-19.7790625 43.421875 -20.7690625 43.421875 -21.7890625 43.421875 C-22.1190625 42.761875 -22.4490625 42.101875 -22.7890625 41.421875 C-24.43269384 40.70028076 -26.09956636 40.02836079 -27.7890625 39.421875 C-27.7890625 38.761875 -27.7890625 38.101875 -27.7890625 37.421875 C-28.7790625 37.421875 -29.7690625 37.421875 -30.7890625 37.421875 C-30.7890625 34.121875 -30.7890625 30.821875 -30.7890625 27.421875 C-30.0878125 27.195 -29.3865625 26.968125 -28.6640625 26.734375 C-26.13463008 25.57963411 -24.65838209 24.58079961 -22.6015625 22.796875 C-19.7890625 20.421875 -19.7890625 20.421875 -17.7890625 20.421875 C-17.7890625 19.761875 -17.7890625 19.101875 -17.7890625 18.421875 C-16.68691406 17.59429687 -16.68691406 17.59429687 -15.5625 16.75 C-11.71318171 13.51874127 -9.71122354 9.59324228 -7.359375 5.203125 C-5.16002023 1.46422189 -4.42347512 0.49251063 0 0 Z " fill="#7270F5" transform="translate(65.7890625,37.578125)"/>
<path d="M0 0 C1.32 0 2.64 0 4 0 C4.01981934 1.12494873 4.03963867 2.24989746 4.06005859 3.40893555 C4.13628155 7.59307781 4.22497306 11.77687987 4.31738281 15.96069336 C4.35560367 17.76954418 4.3904685 19.57846921 4.421875 21.38745117 C4.46767557 23.99164302 4.52564474 26.595327 4.5859375 29.19921875 C4.59748871 30.00461594 4.60903992 30.81001312 4.62094116 31.63981628 C4.73112665 35.85660299 5.0759686 39.14856171 7 43 C3.7 43 0.4 43 -3 43 C-5.1311036 38.73779279 -5.22503234 36.85112861 -5.16015625 32.1875 C-5.15495468 31.53676514 -5.14975311 30.88603027 -5.14439392 30.21557617 C-5.126643 28.14348598 -5.09549049 26.07189915 -5.0625 24 C-5.03480791 21.92815014 -5.01009239 19.85637421 -4.99131775 17.78442383 C-4.97352582 15.9043859 -4.94611632 14.0244463 -4.91821289 12.14453125 C-4.98610726 9.53414476 -5.21801642 7.4704704 -6 5 C-4.02 4.34 -2.04 3.68 0 3 C0 2.01 0 1.02 0 0 Z " fill="#695CF5" transform="translate(293,44)"/>
<path d="M0 0 C2.22810082 1.46185152 3.71589459 2.77944544 4.9140625 5.17578125 C2.4390625 4.68078125 2.4390625 4.68078125 -0.0859375 4.17578125 C-0.03373047 6.07650391 -0.03373047 6.07650391 0.01953125 8.015625 C0.04769487 9.71483036 0.07499225 11.41405023 0.1015625 13.11328125 C0.12669922 13.94408203 0.15183594 14.77488281 0.17773438 15.63085938 C0.2713774 23.65294557 -1.55156621 30.48218554 -6.0859375 37.17578125 C-7.3359375 35.61328125 -7.3359375 35.61328125 -8.0859375 33.17578125 C-7.12970889 31.49413784 -6.16258997 29.81659821 -5.11328125 28.19140625 C-3.34288701 24.71793314 -3.26024998 21.01937135 -3.0859375 17.17578125 C-4.98421907 17.77221103 -6.87947251 18.37828288 -8.7734375 18.98828125 C-10.35705078 19.49294922 -10.35705078 19.49294922 -11.97265625 20.0078125 C-14.94376365 21.12244376 -17.42875704 22.45526923 -20.0859375 24.17578125 C-20.0859375 22.52578125 -20.0859375 20.87578125 -20.0859375 19.17578125 C-17.65021691 18.33691069 -15.21260533 17.50451596 -12.7734375 16.67578125 C-12.08314453 16.43730469 -11.39285156 16.19882812 -10.68164062 15.953125 C-7.69662261 14.94369862 -5.25934836 14.17578125 -2.0859375 14.17578125 C-2.484225 12.87832953 -2.90537672 11.58788315 -3.3359375 10.30078125 C-3.56796875 9.58148438 -3.8 8.8621875 -4.0390625 8.12109375 C-5.37992837 5.62948478 -6.42793573 5.07777463 -9.0859375 4.17578125 C-15.1475991 3.84514516 -19.26589024 5.50336429 -24.0859375 9.17578125 C-25.0759375 9.50578125 -26.0659375 9.83578125 -27.0859375 10.17578125 C-25.67721425 6.81090344 -24.08938278 5.11868668 -21.1484375 2.98828125 C-20.45878906 2.47910156 -19.76914062 1.96992187 -19.05859375 1.4453125 C-13.87302208 -1.89193659 -5.70859078 -2.25564168 0 0 Z " fill="#6057E3" transform="translate(399.0859375,44.82421875)"/>
<path d="M0 0 C0.66 0 1.32 0 2 0 C2 0.66 2 1.32 2 2 C2.66 2 3.32 2 4 2 C4.33 2.99 4.66 3.98 5 5 C7.00016466 6.20882096 7.00016466 6.20882096 9 7 C9 7.66 9 8.32 9 9 C9.99 9.33 10.98 9.66 12 10 C10 13 10 13 7.875 13.6875 C7.25625 13.790625 6.6375 13.89375 6 14 C5.938125 14.61875 5.87625 15.2375 5.8125 15.875 C5 18 5 18 2.4375 19.25 C1.633125 19.4975 0.82875 19.745 0 20 C-3 16.25 -3 16.25 -3 14 C-5.97 13.505 -5.97 13.505 -9 13 C-9.33 11.35 -9.66 9.7 -10 8 C-9.01 7.67 -8.02 7.34 -7 7 C-6.34 6.154375 -5.68 5.30875 -5 4.4375 C-4.34 3.633125 -3.68 2.82875 -3 2 C-2.01 2 -1.02 2 0 2 C0 1.34 0 0.68 0 0 Z " fill="#5130FC" transform="translate(100,86)"/>
<path d="M0 0 C0.48828125 1.98567708 0.9765625 3.97135417 1.46484375 5.95703125 C1.91010705 7.65683202 2.44433985 9.33301954 3 11 C3.99 11.33 4.98 11.66 6 12 C6.33 12.99 6.66 13.98 7 15 C5.02 15.99 5.02 15.99 3 17 C2.67 15.68 2.34 14.36 2 13 C1.34 13 0.68 13 0 13 C-0.33 11.35 -0.66 9.7 -1 8 C-2.27200971 9.10281127 -3.54255853 10.20730769 -4.8125 11.3125 C-5.52019531 11.92738281 -6.22789063 12.54226562 -6.95703125 13.17578125 C-9.65661093 15.5863046 -11.73419623 17.54281752 -13.5625 20.6875 C-14.036875 21.450625 -14.51125 22.21375 -15 23 C-15.66 23 -16.32 23 -17 23 C-17 23.66 -17 24.32 -17 25 C-18.32 24.67 -19.64 24.34 -21 24 C-20.34 24 -19.68 24 -19 24 C-18.7525 23.34 -18.505 22.68 -18.25 22 C-15.54274998 15.50259995 -13.02642619 11.02642619 -8 6 C-7.28566879 3.35065178 -7.28566879 3.35065178 -7 1 C-4.53721199 -0.231394 -2.7204945 -0.07159196 0 0 Z " fill="#7979FA" transform="translate(69,39)"/>
<path d="M0 0 C0.2475 0.5465625 0.495 1.093125 0.75 1.65625 C2.25847025 4.48463172 4.08153633 6.9326442 6 9.5 C9.77892578 14.55709185 9.77892578 14.55709185 11.13671875 17.27734375 C12.31483617 19.62824773 13.61156496 19.97638498 16 21 C18.75 22.5 18.75 22.5 21 24 C21 24.66 21 25.32 21 26 C21.969375 26.144375 22.93875 26.28875 23.9375 26.4375 C27 27 27 27 28 28 C28.04092937 30.33297433 28.04241723 32.66705225 28 35 C26.02 35.495 26.02 35.495 24 36 C24 36.66 24 37.32 24 38 C21.03 38.495 21.03 38.495 18 39 C17.67 39.99 17.34 40.98 17 42 C16.34 41.67 15.68 41.34 15 41 C16.33333333 39.66666667 17.66666667 38.33333333 19 37 C19.7425 36.13375 19.7425 36.13375 20.5 35.25 C22 34 22 34 26 34 C26 32.35 26 30.7 26 29 C21.37892907 27.38262517 16.7539867 26.14751403 12 25 C12 24.34 12 23.68 12 23 C11.21625 22.71125 10.4325 22.4225 9.625 22.125 C7 21 7 21 5 19 C5.2475 18.29875 5.495 17.5975 5.75 16.875 C6.11220103 12.70968816 3.93287284 11.12182214 1.37109375 8.00390625 C-0.48973115 5.28423909 -0.48092039 3.20613591 0 0 Z " fill="#706CEE" transform="translate(69,39)"/>
<path d="M0 0 C1.58941406 0.20882812 1.58941406 0.20882812 3.2109375 0.421875 C3.2109375 0.751875 3.2109375 1.081875 3.2109375 1.421875 C0.9009375 1.751875 -1.4090625 2.081875 -3.7890625 2.421875 C-3.7890625 4.071875 -3.7890625 5.721875 -3.7890625 7.421875 C-4.4078125 7.669375 -5.0265625 7.916875 -5.6640625 8.171875 C-8.26895322 9.70416366 -8.66234922 10.6426489 -9.7890625 13.421875 C-13.22784724 21.64505591 -15.68010932 26.37600664 -23.7890625 30.421875 C-24.4490625 30.421875 -25.1090625 30.421875 -25.7890625 30.421875 C-26.7790625 32.896875 -26.7790625 32.896875 -27.7890625 35.421875 C-28.7790625 35.421875 -29.7690625 35.421875 -30.7890625 35.421875 C-30.7890625 32.781875 -30.7890625 30.141875 -30.7890625 27.421875 C-30.0878125 27.195 -29.3865625 26.968125 -28.6640625 26.734375 C-26.13463008 25.57963411 -24.65838209 24.58079961 -22.6015625 22.796875 C-19.7890625 20.421875 -19.7890625 20.421875 -17.7890625 20.421875 C-17.7890625 19.761875 -17.7890625 19.101875 -17.7890625 18.421875 C-16.68691406 17.59429687 -16.68691406 17.59429687 -15.5625 16.75 C-11.71318171 13.51874127 -9.71122354 9.59324228 -7.359375 5.203125 C-5.16002023 1.46422189 -4.42347512 0.49251063 0 0 Z " fill="#797AF2" transform="translate(65.7890625,37.578125)"/>
<path d="M0 0 C3 1 3 1 4.5625 3.875 C5.036875 4.90625 5.51125 5.9375 6 7 C7.72226496 10.24849977 7.72226496 10.24849977 11 11 C11 11.66 11 12.32 11 13 C12.32 13.66 13.64 14.32 15 15 C14.67 16.98 14.34 18.96 14 21 C13.01 21 12.02 21 11 21 C11.33 19.35 11.66 17.7 12 16 C11.4225 15.9175 10.845 15.835 10.25 15.75 C7.3460664 14.78202213 5.96259396 13.31305716 4 11 C4 10.34 4 9.68 4 9 C3.34 9 2.68 9 2 9 C2 8.01 2 7.02 2 6 C1.34 6 0.68 6 0 6 C-0.10441406 6.59296875 -0.20882812 7.1859375 -0.31640625 7.796875 C-1.1005641 10.32410372 -2.05054524 11.4230218 -3.9375 13.25 C-4.46214844 13.77078125 -4.98679687 14.2915625 -5.52734375 14.828125 C-7 16 -7 16 -9 16 C-8.67 17.65 -8.34 19.3 -8 21 C-8.99 20.67 -9.98 20.34 -11 20 C-11 18.02 -11 16.04 -11 14 C-10.0409375 13.5978125 -10.0409375 13.5978125 -9.0625 13.1875 C-6.66868314 12.11332248 -6.66868314 12.11332248 -6 9 C-5.34 9 -4.68 9 -4 9 C-3.8453125 7.6078125 -3.8453125 7.6078125 -3.6875 6.1875 C-2.9929808 2.96745642 -2.52259061 1.97420135 0 0 Z " fill="#756EF7" transform="translate(100,28)"/>
<path d="M0 0 C4.42957746 -0.35915493 4.42957746 -0.35915493 6.6875 1.0625 C8.57113816 3.84310871 9.2061186 6.7634066 10 10 C8.125 9.8125 8.125 9.8125 6 9 C4.75 6.4375 4.75 6.4375 4 4 C3.01 4 2.02 4 1 4 C-0.32232429 5.43896236 -0.32232429 5.43896236 -1.4375 7.3125 C-3.3583212 10.19663335 -5.16811854 11.97722753 -8 14 C-8.33 14.99 -8.66 15.98 -9 17 C-9.66 17 -10.32 17 -11 17 C-10.73323796 18.98491642 -10.73323796 18.98491642 -10 21 C-9.01 21.33 -8.02 21.66 -7 22 C-6.3125 24.0625 -6.3125 24.0625 -6 26 C-5.34 26 -4.68 26 -4 26 C-4.33 26.66 -4.66 27.32 -5 28 C-5.99 27.34 -6.98 26.68 -8 26 C-8 25.34 -8 24.68 -8 24 C-8.969375 23.87625 -9.93875 23.7525 -10.9375 23.625 C-12.4534375 23.315625 -12.4534375 23.315625 -14 23 C-15.4783226 20.04335481 -15.06032783 17.25770263 -15 14 C-14.278125 13.7525 -13.55625 13.505 -12.8125 13.25 C-8.20614205 11.2027298 -4.87540252 8.77375186 -3 4 C-2.34 4 -1.68 4 -1 4 C-0.67 2.68 -0.34 1.36 0 0 Z " fill="#5C5AD2" transform="translate(99,78)"/>
<path d="M0 0 C2 3 2 3 1.8125 6.5625 C1 10 1 10 -2 12 C-7.44444444 11.55555556 -7.44444444 11.55555556 -10 9 C-10.375 5.5625 -10.375 5.5625 -10 2 C-7.01983499 -1.66789539 -4.31348256 -1.31279904 0 0 Z " fill="#655AEB" transform="translate(296,30)"/>
<path d="M0 0 C2 3 2 3 1.8125 6.5625 C1 10 1 10 -2 12 C-7.44444444 11.55555556 -7.44444444 11.55555556 -10 9 C-10.375 5.5625 -10.375 5.5625 -10 2 C-7.01983499 -1.66789539 -4.31348256 -1.31279904 0 0 Z " fill="#675BEA" transform="translate(198,30)"/>
<path d="M0 0 C0.66 0.33 1.32 0.66 2 1 C2.02531773 8.06582882 2.04285324 15.13164598 2.05493164 22.19750977 C2.05996598 24.60213661 2.06679386 27.00676038 2.07543945 29.41137695 C2.08754429 32.86410275 2.09323726 36.31678814 2.09765625 39.76953125 C2.10281754 40.84773636 2.10797882 41.92594147 2.11329651 43.03681946 C2.11337204 44.03763046 2.11344757 45.03844147 2.11352539 46.06958008 C2.115746 46.95116287 2.11796661 47.83274567 2.12025452 48.74104309 C2 51 2 51 1 54 C3.31 54.33 5.62 54.66 8 55 C8 55.33 8 55.66 8 56 C4.37 56 0.74 56 -3 56 C-2.34 54.35 -1.68 52.7 -1 51 C-0.67854888 48.4386419 -0.67854888 48.4386419 -0.68115234 45.75073242 C-0.66128265 44.73005173 -0.64141296 43.70937103 -0.62094116 42.65776062 C-0.60938995 41.5680043 -0.59783875 40.47824799 -0.5859375 39.35546875 C-0.56657135 38.2305452 -0.5472052 37.10562164 -0.5272522 35.9466095 C-0.4675629 32.36031634 -0.42111306 28.77399091 -0.375 25.1875 C-0.33681047 22.75324136 -0.29775817 20.31899608 -0.2578125 17.88476562 C-0.16187002 11.92329595 -0.07679125 5.96174547 0 0 Z " fill="#665CD8" transform="translate(139,54)"/>
<path d="M0 0 C2.99773701 1.15297577 4.00312605 2.0687521 5.4375 4.9375 C5.35946617 8.13688696 4.87495759 9.46879544 2.6875 11.8125 C0.4375 12.9375 0.4375 12.9375 -2.125 12.875 C-5.12273701 11.72202423 -6.12812605 10.8062479 -7.5625 7.9375 C-7.48446617 4.73811304 -6.99995759 3.40620456 -4.8125 1.0625 C-2.5625 -0.0625 -2.5625 -0.0625 0 0 Z " fill="#6358EA" transform="translate(421.5625,29.0625)"/>
<path d="M0 0 C8.91 0 17.82 0 27 0 C26.67 0.99 26.34 1.98 26 3 C26 2.34 26 1.68 26 1 C22.37 1.33 18.74 1.66 15 2 C15 2.99 15 3.98 15 5 C14.278125 4.731875 13.55625 4.46375 12.8125 4.1875 C9.84995739 3.67315524 9.84995739 3.67315524 7.5625 5.9375 C6.716875 6.948125 5.87125 7.95875 5 9 C4.44441406 9.61746094 3.88882813 10.23492187 3.31640625 10.87109375 C0.11090418 14.52725325 0.11090418 14.52725325 -1.15625 19.0703125 C-0.89088626 21.20337585 -0.89088626 21.20337585 0 24 C-3 22 -3 22 -3.90234375 19.2421875 C-4.0262407 15.12880865 -2.88953176 13.47265972 -0.5625 10.125 C0.09621094 9.15820312 0.75492188 8.19140625 1.43359375 7.1953125 C1.95050781 6.47085938 2.46742188 5.74640625 3 5 C2.01 4.34 1.02 3.68 0 3 C0 2.01 0 1.02 0 0 Z " fill="#625ADA" transform="translate(230,44)"/>
<path d="M0 0 C0 0.66 0 1.32 0 2 C-1.98 2.66 -3.96 3.32 -6 4 C-5.67257812 4.51353027 -5.34515625 5.02706055 -5.0078125 5.55615234 C-3.65077448 8.84683806 -3.80980911 11.54730087 -3.875 15.1015625 C-3.88257324 15.77923676 -3.89014648 16.45691101 -3.89794922 17.15512085 C-3.92231067 19.31201014 -3.95958096 21.46835548 -4 23.625 C-4.05308448 26.47133919 -4.09309767 29.3174161 -4.125 32.1640625 C-4.14820313 33.42686035 -4.17140625 34.6896582 -4.1953125 35.99072266 C-4.32486137 39.11502184 -4.32486137 39.11502184 -2 41 C-3 42 -3 42 -5.06640625 42.09765625 C-5.89011719 42.08605469 -6.71382813 42.07445312 -7.5625 42.0625 C-8.38878906 42.05347656 -9.21507812 42.04445312 -10.06640625 42.03515625 C-10.70449219 42.02355469 -11.34257812 42.01195312 -12 42 C-12.33 40.68 -12.66 39.36 -13 38 C-12.38125 38.33 -11.7625 38.66 -11.125 39 C-9.08981656 40.14193235 -9.08981656 40.14193235 -7 40 C-7 29.11 -7 18.22 -7 7 C-7.66 6.67 -8.32 6.34 -9 6 C-8 3 -8 3 -5.0625 1.3125 C-2 0 -2 0 0 0 Z " fill="#665AE9" transform="translate(293,45)"/>
<path d="M0 0 C0.99 0.33 1.98 0.66 3 1 C1.87994369 4.36016893 0.62788203 5.69064913 -2 8 C-2.66 8 -3.32 8 -4 8 C-4.27328125 8.55300781 -4.5465625 9.10601562 -4.828125 9.67578125 C-10.82567353 21.57091918 -10.82567353 21.57091918 -15.25 23.1875 C-18 23 -18 23 -20 22 C-20.33 21.01 -20.66 20.02 -21 19 C-21.66 18.67 -22.32 18.34 -23 18 C-23 16.68 -23 15.36 -23 14 C-19.20411134 14.54226981 -17.52788007 16.20127563 -15 19 C-15.99 19.33 -16.98 19.66 -18 20 C-16.68 20 -15.36 20 -14 20 C-13.01 17.36 -12.02 14.72 -11 12 C-10.34 12 -9.68 12 -9 12 C-9 11.01 -9 10.02 -9 9 C-8.01 9 -7.02 9 -6 9 C-5.71125 8.4225 -5.4225 7.845 -5.125 7.25 C-4.568125 6.13625 -4.568125 6.13625 -4 5 C-3.67 4.278125 -3.34 3.55625 -3 2.8125 C-2 1 -2 1 0 0 Z " fill="#595EDA" transform="translate(81,80)"/>
<path d="M0 0 C0.66 0 1.32 0 2 0 C2.33 1.32 2.66 2.64 3 4 C4.3921875 4.0928125 4.3921875 4.0928125 5.8125 4.1875 C9 5 9 5 10.875 7.5625 C11.431875 8.7690625 11.431875 8.7690625 12 10 C13.65 9.67 15.3 9.34 17 9 C17.33 7.35 17.66 5.7 18 4 C18.99 4.33 19.98 4.66 21 5 C16.23263076 14.75253708 16.23263076 14.75253708 14 18 C13.34 18 12.68 18 12 18 C11.7525 17.030625 11.505 16.06125 11.25 15.0625 C10.63125 13.5465625 10.63125 13.5465625 10 12 C7.96756452 11.03122943 7.96756452 11.03122943 6 11 C6.33 10.34 6.66 9.68 7 9 C6.34 9 5.68 9 5 9 C4.67 7.68 4.34 6.36 4 5 C2.68 4.67 1.36 4.34 0 4 C0 2.68 0 1.36 0 0 Z " fill="#5C47F8" transform="translate(88,95)"/>
<path d="M0 0 C0.66 0.33 1.32 0.66 2 1 C2.3849058 11.82012984 2.25642936 20.76431857 -4 30 C-5.25 28.4375 -5.25 28.4375 -6 26 C-5.04377139 24.31835659 -4.07665247 22.64081696 -3.02734375 21.015625 C-1.25694951 17.54215189 -1.17431248 13.8435901 -1 10 C-2.89828157 10.59642978 -4.79353501 11.20250163 -6.6875 11.8125 C-7.74324219 12.14894531 -8.79898437 12.48539063 -9.88671875 12.83203125 C-12.85782615 13.94666251 -15.34281954 15.27948798 -18 17 C-18 15.35 -18 13.7 -18 12 C-15.56427941 11.16112944 -13.12666783 10.32873471 -10.6875 9.5 C-9.99720703 9.26152344 -9.30691406 9.02304687 -8.59570312 8.77734375 C-5.61068511 7.76791737 -3.17341086 7 0 7 C-0.185625 6.030625 -0.37125 5.06125 -0.5625 4.0625 C-0.706875 3.051875 -0.85125 2.04125 -1 1 C-0.67 0.67 -0.34 0.34 0 0 Z " fill="#6A64DA" transform="translate(397,52)"/>
<path d="M0 0 C2.33944736 0.28730055 4.6739143 0.61936779 7 1 C8.33359073 7.42548263 8.33359073 7.42548263 6.875 9.9375 C4.30740185 11.39247229 2.90066607 11.58013321 0 11 C-1.9375 8.8125 -1.9375 8.8125 -3 6 C-2.33719617 3.56971928 -1.7989028 1.7989028 0 0 Z " fill="#645BEB" transform="translate(354,77)"/>
<path d="M0 0 C0.66 0 1.32 0 2 0 C1.67 1.65 1.34 3.3 1 5 C0.34 5 -0.32 5 -1 5 C-1.33 6.32 -1.66 7.64 -2 9 C-3.32 9.33 -4.64 9.66 -6 10 C-5.72686864 14.00592666 -5.52323517 15.540574 -2.4375 18.25 C-1.2309375 19.11625 -1.2309375 19.11625 0 20 C0 20.66 0 21.32 0 22 C-0.99 22 -1.98 22 -3 22 C-3.33 21.34 -3.66 20.68 -4 20 C-4.99 19.608125 -5.98 19.21625 -7 18.8125 C-7.99 18.214375 -8.98 17.61625 -10 17 C-10.875 13.3125 -10.875 13.3125 -11 10 C-10.37351562 9.61328125 -9.74703125 9.2265625 -9.1015625 8.828125 C-8.28429687 8.30734375 -7.46703125 7.7865625 -6.625 7.25 C-5.40683594 6.48429687 -5.40683594 6.48429687 -4.1640625 5.703125 C-1.91444321 3.9326665 -1.04093152 2.63092581 0 0 Z " fill="#7671EC" transform="translate(95,32)"/>
<path d="M0 0 C0.66 0.33 1.32 0.66 2 1 C0.62018779 5.41539907 -1.82110303 8.56490699 -4.66015625 12.1328125 C-6.18614683 14.06483629 -6.18614683 14.06483629 -7 17 C-5.68 17.33 -4.36 17.66 -3 18 C-3 18.33 -3 18.66 -3 19 C-7.62 19 -12.24 19 -17 19 C-17 18.01 -17 17.02 -17 16 C-16.01 16 -15.02 16 -14 16 C-7.77036813 12.20670931 -3.89042306 5.98344702 0 0 Z " fill="#5C59CD" transform="translate(218,68)"/>
<path d="M0 0 C3.63 0 7.26 0 11 0 C11.33 0.99 11.66 1.98 12 3 C11.175 3.433125 10.35 3.86625 9.5 4.3125 C4.42702751 7.6257093 1.34731592 13.0724791 -2 18 C-2.66 17.67 -3.32 17.34 -4 17 C-2.44298069 12.32894208 0.08447373 8.91294315 3 5 C2.01 4.34 1.02 3.68 0 3 C0 2.01 0 1.02 0 0 Z " fill="#6159D7" transform="translate(269,44)"/>
<path d="M0 0 C0.78375 0.04125 1.5675 0.0825 2.375 0.125 C2.86328125 2.11067708 3.3515625 4.09635417 3.83984375 6.08203125 C4.28510705 7.78183202 4.81933985 9.45801954 5.375 11.125 C6.365 11.455 7.355 11.785 8.375 12.125 C8.705 13.115 9.035 14.105 9.375 15.125 C7.395 16.115 7.395 16.115 5.375 17.125 C5.045 15.805 4.715 14.485 4.375 13.125 C3.715 13.125 3.055 13.125 2.375 13.125 C2.045 11.475 1.715 9.825 1.375 8.125 C-1.1 9.61 -1.1 9.61 -3.625 11.125 C-3.625 9.475 -3.625 7.825 -3.625 6.125 C-1.975 5.795 -0.325 5.465 1.375 5.125 C1.045 4.465 0.715 3.805 0.375 3.125 C-2.15233235 2.46944881 -2.15233235 2.46944881 -4.625 2.125 C-2.625 0.125 -2.625 0.125 0 0 Z M-6.625 11.125 C-5.635 11.455 -4.645 11.785 -3.625 12.125 C-4.615 12.785 -5.605 13.445 -6.625 14.125 C-6.625 13.135 -6.625 12.145 -6.625 11.125 Z " fill="#7271F5" transform="translate(66.625,38.875)"/>
<path d="M0 0 C0.09008051 10.2391509 0.15297025 20.46127229 -0.4375 30.6875 C-0.47673584 31.39898193 -0.51597168 32.11046387 -0.55639648 32.84350586 C-0.87096282 37.74192565 -0.87096282 37.74192565 -2 40 C-2.99 40 -3.98 40 -5 40 C-5 39.34 -5 38.68 -5 38 C-4.34 38 -3.68 38 -3 38 C-3 27.11 -3 16.22 -3 5 C-3.66 4.67 -4.32 4.34 -5 4 C-4.67 3.01 -4.34 2.02 -4 1 C-2 0 -2 0 0 0 Z " fill="#5D58C8" transform="translate(191,47)"/>
<path d="M0 0 C2 3 2 3 2 7 C-2.29 7 -6.58 7 -11 7 C-11 6.34 -11 5.68 -11 5 C-13.64 5 -16.28 5 -19 5 C-19 4.67 -19 4.34 -19 4 C-15.37 4 -11.74 4 -8 4 C-7.67 3.01 -7.34 2.02 -7 1 C-3.535 0.505 -3.535 0.505 0 0 Z " fill="#6259ED" transform="translate(343,53)"/>
<path d="M0 0 C-0.4952217 3.66464055 -1.0208206 5.70832354 -4 8 C-6.90541905 8.96847302 -8.96637454 9.19582812 -12 9.25 C-13.299375 9.28867188 -13.299375 9.28867188 -14.625 9.328125 C-17.42903194 8.94072585 -18.26286782 8.17141522 -20 6 C-16.4780279 5.91995518 -13.38018531 5.95994298 -10 7 C-9.67 6.01 -9.34 5.02 -9 4 C-9.33 3.34 -9.66 2.68 -10 2 C-3.375 0 -3.375 0 0 0 Z " fill="#5B53E0" transform="translate(392,79)"/>
<path d="M0 0 C3.465 1.98 3.465 1.98 7 4 C7 4.66 7 5.32 7 6 C7.969375 6.144375 8.93875 6.28875 9.9375 6.4375 C13 7 13 7 14 8 C14.04092937 10.33297433 14.04241723 12.66705225 14 15 C12.68 15.33 11.36 15.66 10 16 C10 16.66 10 17.32 10 18 C8.02 18.33 6.04 18.66 4 19 C3.67 19.99 3.34 20.98 3 22 C2.34 21.67 1.68 21.34 1 21 C2.33333333 19.66666667 3.66666667 18.33333333 5 17 C5.495 16.4225 5.99 15.845 6.5 15.25 C8 14 8 14 12 14 C12 12.35 12 10.7 12 9 C11.13375 8.731875 10.2675 8.46375 9.375 8.1875 C6.08208036 7.02888013 3.08872125 5.61790161 0 4 C0 2.68 0 1.36 0 0 Z " fill="#6263D0" transform="translate(83,59)"/>
<path d="M0 0 C4 4.34285714 4 4.34285714 4 7 C4.99 7 5.98 7 7 7 C7 8.98 7 10.96 7 13 C6.34 13 5.68 13 5 13 C4.67 13.99 4.34 14.98 4 16 C4 14.35 4 12.7 4 11 C3.01 10.67 2.02 10.34 1 10 C1 9.01 1 8.02 1 7 C0.01 6.67 -0.98 6.34 -2 6 C-2 5.34 -2 4.68 -2 4 C-3.32 3.34 -4.64 2.68 -6 2 C-3 0 -3 0 0 0 Z " fill="#6969E3" transform="translate(53,81)"/>
<path d="M0 0 C0.33 0 0.66 0 1 0 C1.12375 0.94875 1.2475 1.8975 1.375 2.875 C1.71687177 6.08667191 1.71687177 6.08667191 4 8 C-1.64983156 12.9928744 -5.52678918 15.29611452 -13.3125 15.125 C-14.38113281 15.10695313 -15.44976562 15.08890625 -16.55078125 15.0703125 C-17.35902344 15.04710938 -18.16726562 15.02390625 -19 15 C-18.360625 14.71125 -17.72125 14.4225 -17.0625 14.125 C-14.84793921 13.17176549 -14.84793921 13.17176549 -14 11 C-13.278125 11.20625 -12.55625 11.4125 -11.8125 11.625 C-8.45312596 12.07291654 -6.94904846 11.62973731 -4 10 C-0.97945978 6.97945978 -0.4746748 4.17713824 0 0 Z " fill="#635ED2" transform="translate(172,73)"/>
<path d="M0 0 C0.66 0 1.32 0 2 0 C3.33346412 1.95030467 4.43891316 3.99004369 5.5859375 6.0546875 C7.18112355 8.24916996 8.51291505 8.99458268 11 10 C11 10.66 11 11.32 11 12 C11.66 12 12.32 12 13 12 C13 15.3 13 18.6 13 22 C11.35 22 9.7 22 8 22 C7.67 22.99 7.34 23.98 7 25 C6.01 24.67 5.02 24.34 4 24 C5.8125 22 5.8125 22 8 20 C8.99 20 9.98 20 11 20 C11.2502157 17.08365871 11.2502157 17.08365871 11 14 C10.01 13.34 9.02 12.68 8 12 C8 11.34 8 10.68 8 10 C7.4225 9.979375 6.845 9.95875 6.25 9.9375 C2.57066705 8.40444461 1.72716653 5.51601757 0 2 C0 1.34 0 0.68 0 0 Z " fill="#666BD3" transform="translate(103,29)"/>
<path d="M0 0 C1.58941406 0.20882812 1.58941406 0.20882812 3.2109375 0.421875 C3.2109375 0.751875 3.2109375 1.081875 3.2109375 1.421875 C0.9009375 1.751875 -1.4090625 2.081875 -3.7890625 2.421875 C-3.7890625 4.071875 -3.7890625 5.721875 -3.7890625 7.421875 C-4.4078125 7.669375 -5.0265625 7.916875 -5.6640625 8.171875 C-8.92580581 10.09054753 -9.52621695 12.50191558 -10.5390625 16.046875 C-11.7890625 18.421875 -11.7890625 18.421875 -14.9140625 19.734375 C-15.8628125 19.96125 -16.8115625 20.188125 -17.7890625 20.421875 C-17.7890625 19.761875 -17.7890625 19.101875 -17.7890625 18.421875 C-16.68691406 17.59429687 -16.68691406 17.59429687 -15.5625 16.75 C-11.71318171 13.51874127 -9.71122354 9.59324228 -7.359375 5.203125 C-5.16002023 1.46422189 -4.42347512 0.49251063 0 0 Z " fill="#6667C1" transform="translate(65.7890625,37.578125)"/>
<path d="M0 0 C0.99 0.33 1.98 0.66 3 1 C2.09373216 2.2989839 1.17450463 3.58893167 0.25 4.875 C-0.26046875 5.59429687 -0.7709375 6.31359375 -1.296875 7.0546875 C-3.07503547 9.08570565 -4.52701607 9.97855012 -7 11 C-7.33 10.01 -7.66 9.02 -8 8 C-9.65 7.67 -11.3 7.34 -13 7 C-13 6.67 -13 6.34 -13 6 C-12.31292969 5.81824219 -11.62585938 5.63648437 -10.91796875 5.44921875 C-10.01691406 5.19785156 -9.11585938 4.94648437 -8.1875 4.6875 C-7.29417969 4.44386719 -6.40085937 4.20023437 -5.48046875 3.94921875 C-2.94752262 2.9799181 -1.7283504 2.04990396 0 0 Z " fill="#635CD7" transform="translate(343,74)"/>
<path d="M0 0 C0 0.66 0 1.32 0 2 C-1.98 2.66 -3.96 3.32 -6 4 C-5.67 4.66 -5.34 5.32 -5 6 C-4.91413191 8.32416296 -4.89288957 10.65083307 -4.90234375 12.9765625 C-4.9037587 13.66181 -4.90517365 14.3470575 -4.90663147 15.05307007 C-4.91223325 17.24375761 -4.92478594 19.4343433 -4.9375 21.625 C-4.94251478 23.10937352 -4.94707772 24.59374865 -4.95117188 26.078125 C-4.96220323 29.71878315 -4.97946901 33.35938164 -5 37 C-5.33 37 -5.66 37 -6 37 C-6.33 27.1 -6.66 17.2 -7 7 C-7.66 6.67 -8.32 6.34 -9 6 C-8 3 -8 3 -5.0625 1.3125 C-2 0 -2 0 0 0 Z " fill="#5F58C5" transform="translate(293,45)"/>
<path d="M0 0 C0.66 0.33 1.32 0.66 2 1 C1 4 1 4 -1 5 C-1.598125 6.155 -2.19625 7.31 -2.8125 8.5 C-4.27064006 11.12898859 -4.69900745 11.85702854 -7.5 13.1875 C-10 13 -10 13 -12.3125 11.25 C-14 9 -14 9 -14 6 C-13.01 6 -12.02 6 -11 6 C-10.34 7.98 -9.68 9.96 -9 12 C-8.34 12 -7.68 12 -7 12 C-6.773125 11.319375 -6.54625 10.63875 -6.3125 9.9375 C-4.64427643 6.20385676 -2.44270392 3.27836579 0 0 Z " fill="#5551CA" transform="translate(109,101)"/>
<path d="M0 0 C1.9375 0.6875 1.9375 0.6875 4 2 C4.75 4.625 4.75 4.625 5 7 C4.34 7 3.68 7 3 7 C3 6.01 3 5.02 3 4 C-0.87241564 5.46884731 -1.97198676 7.49706804 -4 11 C-4.66 11 -5.32 11 -6 11 C-6.33 11.99 -6.66 12.98 -7 14 C-7.99 14 -8.98 14 -10 14 C-8.75481714 10.26445141 -6.77378939 8.77378939 -4 6 C-2.56448944 4.04917795 -1.28947529 2.05360879 0 0 Z " fill="#6357F2" transform="translate(100,80)"/>
<path d="M0 0 C1.32 0.33 2.64 0.66 4 1 C3.41089844 1.71285156 2.82179687 2.42570312 2.21484375 3.16015625 C-2.09591368 8.22220621 -2.09591368 8.22220621 -4.30859375 14.2890625 C-4.02756908 16.37651726 -4.02756908 16.37651726 -3 19 C-6 17 -6 17 -6.90234375 14.2421875 C-7.0262407 10.12880865 -5.88953176 8.47265972 -3.5625 5.125 C-2.90378906 4.15820312 -2.24507812 3.19140625 -1.56640625 2.1953125 C-1.04949219 1.47085938 -0.53257812 0.74640625 0 0 Z " fill="#6B65CD" transform="translate(233,49)"/>
<path d="M0 0 C0.38800781 0.47050781 0.77601563 0.94101563 1.17578125 1.42578125 C3.47502924 3.40992887 5.21311811 3.68533163 8.1875 4.1875 C9.08855469 4.34605469 9.98960937 4.50460938 10.91796875 4.66796875 C11.60503906 4.77753906 12.29210937 4.88710937 13 5 C13 5.66 13 6.32 13 7 C8.71 7 4.42 7 0 7 C-0.33 5.02 -0.66 3.04 -1 1 C-0.67 0.67 -0.34 0.34 0 0 Z " fill="#5E56F2" transform="translate(268,80)"/>
<path d="M0 0 C2.5 1.375 2.5 1.375 5 3 C5 3.66 5 4.32 5 5 C0.05 5 -4.9 5 -10 5 C-10.33 4.34 -10.66 3.68 -11 3 C-8 2 -8 2 -4.375 1.5 C-1.16893124 1.36754688 -1.16893124 1.36754688 0 0 Z " fill="#5955FA" transform="translate(248,82)"/>
<path d="M0 0 C1.1446875 0.3403125 1.1446875 0.3403125 2.3125 0.6875 C0.3125 2.02083333 -1.6875 3.35416667 -3.6875 4.6875 C-4.19654384 7.1032113 -4.19654384 7.1032113 -4.19921875 9.9140625 C-4.23466797 10.9453125 -4.27011719 11.9765625 -4.30664062 13.0390625 C-4.32919922 14.11929688 -4.35175781 15.19953125 -4.375 16.3125 C-4.40916016 17.40046875 -4.44332031 18.4884375 -4.47851562 19.609375 C-4.56118334 22.30198063 -4.63027087 24.99425291 -4.6875 27.6875 C-5.0175 27.6875 -5.3475 27.6875 -5.6875 27.6875 C-5.77444042 23.58346637 -5.82787149 19.47966871 -5.875 15.375 C-5.90013672 14.20775391 -5.92527344 13.04050781 -5.95117188 11.83789062 C-5.96567383 10.16049805 -5.96567383 10.16049805 -5.98046875 8.44921875 C-5.9961792 7.41756592 -6.01188965 6.38591309 -6.02807617 5.32299805 C-5.6875 2.6875 -5.6875 2.6875 -4.3371582 0.80786133 C-2.6875 -0.3125 -2.6875 -0.3125 0 0 Z " fill="#615AB8" transform="translate(153.6875,47.3125)"/>
<path d="M0 0 C0.66 0.99 1.32 1.98 2 3 C0.95606023 4.65766805 -0.11092879 6.30083631 -1.1875 7.9375 C-1.77917969 8.85402344 -2.37085938 9.77054688 -2.98046875 10.71484375 C-5.3071956 13.34760044 -6.56140181 13.72087372 -10 14 C-9.61328125 13.49210937 -9.2265625 12.98421875 -8.828125 12.4609375 C-5.74572807 8.38668017 -2.78428845 4.28352069 0 0 Z " fill="#6560D1" transform="translate(255,70)"/>
<path d="M0 0 C0.66 0 1.32 0 2 0 C2.33 1.32 2.66 2.64 3 4 C4.65 4.33 6.3 4.66 8 5 C8.66 7.31 9.32 9.62 10 12 C8.68 11.67 7.36 11.34 6 11 C6.33 10.34 6.66 9.68 7 9 C6.34 9 5.68 9 5 9 C4.67 7.68 4.34 6.36 4 5 C2.68 4.67 1.36 4.34 0 4 C0 2.68 0 1.36 0 0 Z " fill="#6155F8" transform="translate(88,95)"/>
<path d="M0 0 C0.99 0 1.98 0 3 0 C3.33 1.65 3.66 3.3 4 5 C0.04 5 -3.92 5 -8 5 C-7.34 3.68 -6.68 2.36 -6 1 C-5.34 1 -4.68 1 -4 1 C-4 1.66 -4 2.32 -4 3 C-3.34 3 -2.68 3 -2 3 C-1.67 2.34 -1.34 1.68 -1 1 C-0.67 0.67 -0.34 0.34 0 0 Z " fill="#5D57F7" transform="translate(197,82)"/>
<path d="M0 0 C0.66 0.33 1.32 0.66 2 1 C1.67 2.32 1.34 3.64 1 5 C1.56589844 5.32613281 2.13179688 5.65226562 2.71484375 5.98828125 C3.44832031 6.42527344 4.18179688 6.86226562 4.9375 7.3125 C5.66839844 7.74175781 6.39929688 8.17101563 7.15234375 8.61328125 C9 10 9 10 10 13 C9.01 13 8.02 13 7 13 C6.67 12.34 6.34 11.68 6 11 C4.515 10.4121875 4.515 10.4121875 3 9.8125 C0 8 0 8 -0.9375 4.375 C-0.958125 3.26125 -0.97875 2.1475 -1 1 C-0.67 0.67 -0.34 0.34 0 0 Z " fill="#6160CE" transform="translate(85,41)"/>
<path d="M0 0 C0.90105469 0.00902344 1.80210937 0.01804688 2.73046875 0.02734375 C3.41753906 0.03894531 4.10460937 0.05054688 4.8125 0.0625 C4.8125 1.0525 4.8125 2.0425 4.8125 3.0625 C2.08407939 4.42671031 0.20296682 3.94057211 -2.8125 3.625 C-3.81539062 3.52316406 -4.81828125 3.42132813 -5.8515625 3.31640625 C-6.62242187 3.23261719 -7.39328125 3.14882813 -8.1875 3.0625 C-8.1875 2.4025 -8.1875 1.7425 -8.1875 1.0625 C-5.17259443 0.05753148 -3.14568308 -0.04085303 0 0 Z " fill="#675AF2" transform="translate(161.1875,44.9375)"/>
<path d="M0 0 C1.2065625 0.0309375 1.2065625 0.0309375 2.4375 0.0625 C1.4475 0.5575 1.4475 0.5575 0.4375 1.0625 C0.293125 2.17625 0.14875 3.29 0 4.4375 C-0.55182074 7.99367808 -0.76698001 8.99624609 -3.5625 11.0625 C-4.51028635 7.37666418 -4.58393554 4.73966794 -3.5625 1.0625 C-2.5625 0.0625 -2.5625 0.0625 0 0 Z " fill="#5F55EF" transform="translate(378.5625,64.9375)"/>
<path d="M0 0 C0.33 0 0.66 0 1 0 C1.738041 15.74487472 1.738041 15.74487472 -3 23 C-3.93423645 19.98968256 -4.04449911 19.13349732 -3 16 C-2.34 16 -1.68 16 -1 16 C-1.01160156 15.34773438 -1.02320313 14.69546875 -1.03515625 14.0234375 C-1.08470994 9.2238086 -0.99413751 4.72215315 0 0 Z " fill="#675CD8" transform="translate(180,57)"/>
<path d="M0 0 C0.24621094 0.54398438 0.49242188 1.08796875 0.74609375 1.6484375 C2.275946 4.5175062 4.12442815 7.01511014 6.0625 9.625 C9.90277778 14.80555556 9.90277778 14.80555556 11 17 C9.35 16.67 7.7 16.34 6 16 C5.9175 15.4225 5.835 14.845 5.75 14.25 C4.7924861 11.3774583 3.18571625 10.04910899 1 8 C-0.35439668 5.29120665 -0.06501451 2.99066732 0 0 Z " fill="#5B60D1" transform="translate(69,39)"/>
<path d="M0 0 C2.475 0.99 2.475 0.99 5 2 C5 2.66 5 3.32 5 4 C5.66 4 6.32 4 7 4 C7 7.3 7 10.6 7 14 C5.35 14 3.7 14 2 14 C2.33 13.34 2.66 12.68 3 12 C3.99 12 4.98 12 6 12 C6 10.02 6 8.04 6 6 C5.195625 5.7525 4.39125 5.505 3.5625 5.25 C1 4 1 4 0.1875 1.875 C0.125625 1.25625 0.06375 0.6375 0 0 Z " fill="#6157C8" transform="translate(109,88)"/>
<path d="M0 0 C3.79588866 0.54226981 5.47211993 2.20127563 8 5 C7.01 5.33 6.02 5.66 5 6 C5.66 6.33 6.32 6.66 7 7 C7 7.66 7 8.32 7 9 C5.0625 8.6875 5.0625 8.6875 3 8 C2.67 7.01 2.34 6.02 2 5 C1.34 4.67 0.68 4.34 0 4 C0 2.68 0 1.36 0 0 Z " fill="#595BE3" transform="translate(58,94)"/>
<path d="M0 0 C0.33 0.66 0.66 1.32 1 2 C0.67 2.66 0.34 3.32 0 4 C-0.66 4 -1.32 4 -2 4 C-2.2475 4.61875 -2.495 5.2375 -2.75 5.875 C-4.23250486 8.39525827 -5.28387064 9.01231659 -8 10 C-8.99 10 -9.98 10 -11 10 C-11 9.01 -11 8.02 -11 7 C-9.948125 6.6596875 -9.948125 6.6596875 -8.875 6.3125 C-5.30656387 4.68343133 -2.93485489 2.59359269 0 0 Z " fill="#6D6FCD" transform="translate(46,58)"/>
<path d="M0 0 C0.33 0.99 0.66 1.98 1 3 C-0.40445835 5.2636564 -2.1967913 7.0208685 -4 9 C-6.86697492 7.71480435 -8.97607712 6.42870746 -11 4 C-11 3.34 -11 2.68 -11 2 C-9.02 2.99 -9.02 2.99 -7 4 C-7 4.66 -7 5.32 -7 6 C-6.01 6 -5.02 6 -4 6 C-3.67 5.01 -3.34 4.02 -3 3 C-1.4375 1.3125 -1.4375 1.3125 0 0 Z " fill="#5F61C3" transform="translate(106,54)"/>
<path d="M0 0 C0.99 0.66 1.98 1.32 3 2 C0.36 5.63 -2.28 9.26 -5 13 C-5.66 12.67 -6.32 12.34 -7 12 C-5.44298069 7.32894208 -2.91552627 3.91294315 0 0 Z " fill="#6A63D0" transform="translate(272,49)"/>
<path d="M0 0 C0.66 0.33 1.32 0.66 2 1 C0.84031651 4.47905046 0.16252073 4.81138872 -2.875 6.625 C-3.57367188 7.05039062 -4.27234375 7.47578125 -4.9921875 7.9140625 C-7 9 -7 9 -10 10 C-8.5741914 6.54804233 -6.90253666 4.8985744 -3.875 2.75 C-3.15054687 2.22921875 -2.42609375 1.7084375 -1.6796875 1.171875 C-1.12539063 0.78515625 -0.57109375 0.3984375 0 0 Z " fill="#615BC7" transform="translate(382,45)"/>
<path d="M0 0 C0.66 0.33 1.32 0.66 2 1 C0.88121617 2.17262904 -0.24523051 3.33795138 -1.375 4.5 C-2.00148438 5.1496875 -2.62796875 5.799375 -3.2734375 6.46875 C-5 8 -5 8 -7 8 C-6.67 9.65 -6.34 11.3 -6 13 C-6.99 12.67 -7.98 12.34 -9 12 C-9 10.02 -9 8.04 -9 6 C-8.360625 5.71125 -7.72125 5.4225 -7.0625 5.125 C-4.84793921 4.17176549 -4.84793921 4.17176549 -4 2 C-2.0625 0.8125 -2.0625 0.8125 0 0 Z " fill="#7268FB" transform="translate(98,36)"/>
<path d="M0 0 C0.12375 0.61875 0.2475 1.2375 0.375 1.875 C0.87197356 4.19120832 0.87197356 4.19120832 3 6 C3.99 6.33 4.98 6.66 6 7 C6 7.66 6 8.32 6 9 C6.99 9.33 7.98 9.66 9 10 C8.67 10.66 8.34 11.32 8 12 C7.01 11.67 6.02 11.34 5 11 C4.67 10.34 4.34 9.68 4 9 C2.35636866 8.27840576 0.68949614 7.60648579 -1 7 C-1 6.34 -1 5.68 -1 5 C-1.99 5 -2.98 5 -4 5 C-4 4.34 -4 3.68 -4 3 C-3.01 3 -2.02 3 -1 3 C-0.67 2.01 -0.34 1.02 0 0 Z " fill="#7272D4" transform="translate(39,70)"/>
<path d="M0 0 C-0.25 2.375 -0.25 2.375 -1 5 C-3.0625 6.3125 -3.0625 6.3125 -5 7 C-4.67 6.01 -4.34 5.02 -4 4 C-5.65 4 -7.3 4 -9 4 C-9.33 3.34 -9.66 2.68 -10 2 C-3.375 0 -3.375 0 0 0 Z " fill="#5E59E4" transform="translate(392,79)"/>
<path d="M0 0 C0.66 0.33 1.32 0.66 2 1 C1.360625 1.9075 0.72125 2.815 0.0625 3.75 C-1.61428953 6.39221381 -2.53689998 7.9898499 -3 11 C-3.99 11 -4.98 11 -6 11 C-6.33 9.35 -6.66 7.7 -7 6 C-6.01 5.67 -5.02 5.34 -4 5 C-2.61423077 3.37667033 -1.27358732 1.71275535 0 0 Z " fill="#5A3FF8" transform="translate(97,88)"/>
<path d="M0 0 C0.66 0.33 1.32 0.66 2 1 C0.6302836 4.99500618 -1.25722422 7.80009492 -4 11 C-4.99 10.67 -5.98 10.34 -7 10 C-3.535 5.05 -3.535 5.05 0 0 Z " fill="#6361CE" transform="translate(218,68)"/>
<path d="M0 0 C1.875 0.625 1.875 0.625 4 2 C4.70381157 3.98723268 5.3711811 5.98777953 6 8 C6.99 8.66 7.98 9.32 9 10 C9 10.66 9 11.32 9 12 C8.01 12 7.02 12 6 12 C2.69454418 8.53330244 0.49102561 5.60862461 -1 1 C-0.67 0.67 -0.34 0.34 0 0 Z " fill="#706BF2" transform="translate(93,48)"/>
<path d="M0 0 C0.66 0.33 1.32 0.66 2 1 C1.01 1.8971875 1.01 1.8971875 0 2.8125 C-2.3373846 4.87501834 -2.3373846 4.87501834 -2 8 C-3.32 7.67 -4.64 7.34 -6 7 C-6.33 5.68 -6.66 4.36 -7 3 C-4.69631264 1.93347808 -2.35981813 0.93578995 0 0 Z " fill="#665DDC" transform="translate(143,45)"/>
<path d="M0 0 C0.99 0.33 1.98 0.66 3 1 C2.01 1.33 1.02 1.66 0 2 C-0.309375 2.804375 -0.61875 3.60875 -0.9375 4.4375 C-2 7 -2 7 -4.125 8.3125 C-5.053125 8.6528125 -5.053125 8.6528125 -6 9 C-6 7.68 -6 6.36 -6 5 C-5.34 5 -4.68 5 -4 5 C-3.71125 4.360625 -3.4225 3.72125 -3.125 3.0625 C-2 1 -2 1 0 0 Z " fill="#6D64F3" transform="translate(108,49)"/>
<path d="M0 0 C4.95 0 9.9 0 15 0 C15 0.99 15 1.98 15 3 C14.67 2.34 14.34 1.68 14 1 C10.37 1 6.74 1 3 1 C3.66 2.65 4.32 4.3 5 6 C2.5 4.6875 2.5 4.6875 0 3 C0 2.01 0 1.02 0 0 Z " fill="#675DCD" transform="translate(203,44)"/>
<path d="M0 0 C1.65 1.65 3.3 3.3 5 5 C1.71023192 6.09658936 0.28696233 5.79953138 -3 5 C-3 3.68 -3 2.36 -3 1 C-2.01 0.67 -1.02 0.34 0 0 Z " fill="#685CFA" transform="translate(338,49)"/>
<path d="M0 0 C-0.66 0 -1.32 0 -2 0 C-2 0.66 -2 1.32 -2 2 C-2.94875 2.45375 -3.8975 2.9075 -4.875 3.375 C-8.00313679 4.80238254 -8.00313679 4.80238254 -10 7 C-10 6.01 -10 5.02 -10 4 C-10.66 3.67 -11.32 3.34 -12 3 C-4.8 -1.6 -4.8 -1.6 0 0 Z " fill="#6866CB" transform="translate(325,45)"/>
<path d="M0 0 C0.99 0.33 1.98 0.66 3 1 C1.61918777 5.1424367 -0.59825558 6.32203099 -4 9 C-4.33 8.01 -4.66 7.02 -5 6 C-3.53619796 3.69973965 -1.92817889 1.92817889 0 0 Z " fill="#5A5EC9" transform="translate(81,80)"/>
<path d="M0 0 C0.66 1.98 1.32 3.96 2 6 C0.68 6 -0.64 6 -2 6 C-2 5.34 -2 4.68 -2 4 C-3.32 3.34 -4.64 2.68 -6 2 C-3 0 -3 0 0 0 Z " fill="#5E65E0" transform="translate(53,81)"/>
<path d="M0 0 C3.79303725 1.00193437 6.71536341 1.81024227 10 4 C10 4.99 10 5.98 10 7 C9.46375 6.71125 8.9275 6.4225 8.375 6.125 C5.64719516 4.83288192 2.87387282 3.91441408 0 3 C0 2.01 0 1.02 0 0 Z " fill="#746AF9" transform="translate(85,64)"/>
<path d="M0 0 C1.69141656 0.08963062 3.37959602 0.24577676 5.0625 0.4375 C6.44115234 0.59025391 6.44115234 0.59025391 7.84765625 0.74609375 C8.55792969 0.82988281 9.26820313 0.91367187 10 1 C8.76171875 2.51953125 8.76171875 2.51953125 7 4 C4.21464152 4.10118893 1.76464243 3.49854208 -1 3 C-1.33 3.66 -1.66 4.32 -2 5 C-1.125 1.125 -1.125 1.125 0 0 Z " fill="#5951FA" transform="translate(385,44)"/>
<path d="M0 0 C0.33 0 0.66 0 1 0 C1.99 3.63 2.98 7.26 4 11 C2.68 11 1.36 11 0 11 C0 7.37 0 3.74 0 0 Z " fill="#5E59D7" transform="translate(397,75)"/>
<path d="M0 0 C0.99 0 1.98 0 3 0 C2.67 2.31 2.34 4.62 2 7 C1.67 6.01 1.34 5.02 1 4 C-0.65 4.33 -2.3 4.66 -4 5 C-2.1875 2.5 -2.1875 2.5 0 0 Z " fill="#5C53E5" transform="translate(312,49)"/>
<path d="M0 0 C0.556875 0.350625 1.11375 0.70125 1.6875 1.0625 C4.54998795 2.22296809 6.04024583 1.62310614 9 1 C9.66 1.66 10.32 2.32 11 3 C10 4 10 4 7.93359375 4.09765625 C7.10988281 4.08605469 6.28617187 4.07445313 5.4375 4.0625 C4.61121094 4.05347656 3.78492188 4.04445313 2.93359375 4.03515625 C2.29550781 4.02355469 1.65742188 4.01195313 1 4 C0.67 2.68 0.34 1.36 0 0 Z " fill="#5C5BDF" transform="translate(280,83)"/>
<path d="M0 0 C-0.99 0 -1.98 0 -3 0 C-3 0.66 -3 1.32 -3 2 C-4.98 2.33 -6.96 2.66 -9 3 C-9.33 3.99 -9.66 4.98 -10 6 C-10.66 5.67 -11.32 5.34 -12 5 C-5.5 -1.96428571 -5.5 -1.96428571 0 0 Z " fill="#5C5DBC" transform="translate(96,75)"/>
<path d="M0 0 C1.1725131 0.95117134 2.33787015 1.91117009 3.5 2.875 C4.47453125 3.67550781 4.47453125 3.67550781 5.46875 4.4921875 C5.9740625 4.98976563 6.479375 5.48734375 7 6 C7 6.66 7 7.32 7 8 C7.66 8.33 8.32 8.66 9 9 C7.35 9 5.7 9 4 9 C4 7.68 4 6.36 4 5 C3.01 4.67 2.02 4.34 1 4 C0.3125 1.9375 0.3125 1.9375 0 0 Z " fill="#5C53E4" transform="translate(150,78)"/>
<path d="M0 0 C0.33 1.32 0.66 2.64 1 4 C2.65 4 4.3 4 6 4 C6 4.33 6 4.66 6 5 C2.37 5 -1.26 5 -5 5 C-3.35 3.35 -1.7 1.7 0 0 Z " fill="#5853F2" transform="translate(209,82)"/>
<path d="M0 0 C1.9375 0.6875 1.9375 0.6875 4 2 C4.75 4.625 4.75 4.625 5 7 C4.34 7 3.68 7 3 7 C3 6.01 3 5.02 3 4 C1.35 4.33 -0.3 4.66 -2 5 C-1.34 3.35 -0.68 1.7 0 0 Z " fill="#7266F4" transform="translate(100,80)"/>
<path d="M0 0 C3.96 0 7.92 0 12 0 C12 0.66 12 1.32 12 2 C12.66 2.33 13.32 2.66 14 3 C12.02 3 10.04 3 8 3 C8 2.34 8 1.68 8 1 C5.36 1 2.72 1 0 1 C0 0.67 0 0.34 0 0 Z " fill="#3635F5" transform="translate(324,57)"/>
<path d="M0 0 C0.66 0.33 1.32 0.66 2 1 C0.875 3.875 0.875 3.875 -1 7 C-4.1875 8.375 -4.1875 8.375 -7 9 C-7 8.34 -7 7.68 -7 7 C-5.34614767 5.65080468 -3.678298 4.31866272 -2 3 C-1.34 2.01 -0.68 1.02 0 0 Z " fill="#6A6DD6" transform="translate(55,49)"/>
<path d="M0 0 C0 0.99 0 1.98 0 3 C-1.65 3 -3.3 3 -5 3 C-5.33 3.99 -5.66 4.98 -6 6 C-6.99 5.67 -7.98 5.34 -9 5 C-4.32258065 0 -4.32258065 0 0 0 Z " fill="#6261BF" transform="translate(116,48)"/>
<path d="M0 0 C0.66 0.99 1.32 1.98 2 3 C0.07423885 5.43929746 -1.80090595 7.80090595 -4 10 C-3.67 7.36 -3.34 4.72 -3 2 C-2.01 2 -1.02 2 0 2 C0 1.34 0 0.68 0 0 Z " fill="#5055D4" transform="translate(75,87)"/>
<path d="M0 0 C3 1 3 1 4.0625 2.9375 C4.371875 3.618125 4.68125 4.29875 5 5 C5.66 5.66 6.32 6.32 7 7 C2.25 6.25 2.25 6.25 0 4 C0 2.68 0 1.36 0 0 Z " fill="#6C5AEE" transform="translate(106,87)"/>
<path d="M0 0 C0.99 0 1.98 0 3 0 C2.71125 0.556875 2.4225 1.11375 2.125 1.6875 C0.9586747 4.08494645 -0.0339881 6.51596939 -1 9 C-1.99 8.67 -2.98 8.34 -4 8 C-3.34 8 -2.68 8 -2 8 C-1.7834375 6.576875 -1.7834375 6.576875 -1.5625 5.125 C-1 2 -1 2 0 0 Z " fill="#7775E9" transform="translate(98,29)"/>
<path d="M0 0 C2.5 1.375 2.5 1.375 5 3 C5 3.66 5 4.32 5 5 C2.69 5 0.38 5 -2 5 C-1.34 3.35 -0.68 1.7 0 0 Z " fill="#5A57E6" transform="translate(248,82)"/>
<path d="M0 0 C1.32 0.33 2.64 0.66 4 1 C4 1.66 4 2.32 4 3 C4.66 3 5.32 3 6 3 C6 5.31 6 7.62 6 10 C5.34 9.67 4.68 9.34 4 9 C3.855625 8.21625 3.71125 7.4325 3.5625 6.625 C2.94095849 3.72447297 2.18260961 2.8979214 0 1 C0 0.67 0 0.34 0 0 Z " fill="#7069CC" transform="translate(110,38)"/>
<path d="M0 0 C0.66 0 1.32 0 2 0 C1.70100785 3.58790575 1.23013399 4.78166776 -1.4375 7.3125 C-4 9 -4 9 -6 9 C-4.84334866 5.53004599 -3.81924446 5.11443335 -1 3 C-0.67 2.01 -0.34 1.02 0 0 Z " fill="#5E5BD4" transform="translate(95,32)"/>
<path d="M0 0 C0.99 0 1.98 0 3 0 C3.66 2.31 4.32 4.62 5 7 C3.68 6.67 2.36 6.34 1 6 C0.67 4.02 0.34 2.04 0 0 Z " fill="#5152D2" transform="translate(104,81)"/>
<path d="M0 0 C0.33 0 0.66 0 1 0 C2.07511878 4.39006837 2.3257941 7.04622243 0.0625 10.9375 C-0.618125 11.948125 -1.29875 12.95875 -2 14 C-3.49341969 11.01316063 -2.40648676 9.04839022 -1.5625 5.875 C-1.27503906 4.77929688 -0.98757813 3.68359375 -0.69140625 2.5546875 C-0.46324219 1.71164063 -0.23507812 0.86859375 0 0 Z " fill="#675ED2" transform="translate(397,61)"/>
<path d="M0 0 C2.475 0.99 2.475 0.99 5 2 C5.33 4.31 5.66 6.62 6 9 C3.59927045 6.11912454 1.52708963 3.43595166 0 0 Z " fill="#5A51E1" transform="translate(208,50)"/>
<path d="M0 0 C0 1.98 0 3.96 0 6 C-2.475 5.01 -2.475 5.01 -5 4 C-4.67 3.01 -4.34 2.02 -4 1 C-2 0 -2 0 0 0 Z " fill="#5F56E5" transform="translate(191,47)"/>
<path d="M0 0 C1.670625 0.061875 1.670625 0.061875 3.375 0.125 C2.385 0.455 1.395 0.785 0.375 1.125 C0.705 2.115 1.035 3.105 1.375 4.125 C-0.935 3.465 -3.245 2.805 -5.625 2.125 C-3.625 0.125 -3.625 0.125 0 0 Z " fill="#6260DB" transform="translate(328.625,43.875)"/>
<path d="M0 0 C2.25 1.9375 2.25 1.9375 4 4 C1.125 4.1875 1.125 4.1875 -2 4 C-2.66 3.01 -3.32 2.02 -4 1 C-2.25 0.25 -2.25 0.25 0 0 Z " fill="#5A55F8" transform="translate(424,83)"/>
<path d="M0 0 C0 1.32 0 2.64 0 4 C-1.98 4 -3.96 4 -6 4 C-5.67 3.01 -5.34 2.02 -5 1 C-3 0 -3 0 0 0 Z " fill="#5C51F9" transform="translate(388,83)"/>
<path d="M0 0 C0.33 0.99 0.66 1.98 1 3 C0.01 3.33 -0.98 3.66 -2 4 C-2.33 5.65 -2.66 7.3 -3 9 C-3.75 7.3125 -3.75 7.3125 -4 5 C-2.0625 2.25 -2.0625 2.25 0 0 Z " fill="#5F58D1" transform="translate(373,67)"/>
<path d="M0 0 C1.67542976 0.28604898 3.34385343 0.61781233 5 1 C2.33440687 2.77706209 -0.0280615 3.87548273 -3 5 C-1.125 1.125 -1.125 1.125 0 0 Z " fill="#6B67CF" transform="translate(151,47)"/>
</svg>
